<svg xmlns="http://www.w3.org/2000/svg" xmlns:svg="http://www.w3.org/2000/svg" id="svg8" width="120mm" height="110mm" version="1.1" viewBox="0 0 120 110"><defs id="defs2"><marker id="marker7159" orient="auto" refX="0" refY="0" style="overflow:visible"><path id="path7157" d="M 0,0 5,-5 -12.5,0 5,5 Z" style="fill:#000;fill-opacity:1;fill-rule:evenodd;stroke:#000;stroke-width:1.00000003pt;stroke-opacity:1" transform="matrix(-0.4,0,0,-0.4,-4,0)"/></marker><marker id="marker7071" orient="auto" refX="0" refY="0" style="overflow:visible"><path id="path7069" d="M 0,0 5,-5 -12.5,0 5,5 Z" style="fill:#000;fill-opacity:1;fill-rule:evenodd;stroke:#000;stroke-width:1.00000003pt;stroke-opacity:1" transform="matrix(0.4,0,0,0.4,4,0)"/></marker><marker id="Arrow1Mend" orient="auto" refX="0" refY="0" style="overflow:visible"><path id="path886" d="M 0,0 5,-5 -12.5,0 5,5 Z" style="fill:#000;fill-opacity:1;fill-rule:evenodd;stroke:#000;stroke-width:1.00000003pt;stroke-opacity:1" transform="matrix(-0.4,0,0,-0.4,-4,0)"/></marker><marker id="Arrow1Mstart" orient="auto" refX="0" refY="0" style="overflow:visible"><path id="path883" d="M 0,0 5,-5 -12.5,0 5,5 Z" style="fill:#000;fill-opacity:1;fill-rule:evenodd;stroke:#000;stroke-width:1.00000003pt;stroke-opacity:1" transform="matrix(0.4,0,0,0.4,4,0)"/></marker><marker id="Arrow1Lend" orient="auto" refX="0" refY="0" style="overflow:visible"><path id="path880" d="M 0,0 5,-5 -12.5,0 5,5 Z" style="fill:#000;fill-opacity:1;fill-rule:evenodd;stroke:#000;stroke-width:1.00000003pt;stroke-opacity:1" transform="matrix(-0.8,0,0,-0.8,-10,0)"/></marker><marker id="Arrow1Lstart" orient="auto" refX="0" refY="0" style="overflow:visible"><path id="path877" d="M 0,0 5,-5 -12.5,0 5,5 Z" style="fill:#000;fill-opacity:1;fill-rule:evenodd;stroke:#000;stroke-width:1.00000003pt;stroke-opacity:1" transform="matrix(0.8,0,0,0.8,10,0)"/></marker><marker id="Arrow1Lstart-3" orient="auto" refX="0" refY="0" style="overflow:visible"><path id="path877-6" d="M 0,0 5,-5 -12.5,0 5,5 Z" style="fill:#000;fill-opacity:1;fill-rule:evenodd;stroke:#000;stroke-width:1.00000003pt;stroke-opacity:1" transform="matrix(0.8,0,0,0.8,10,0)"/></marker><marker id="Arrow1Lend-7" orient="auto" refX="0" refY="0" style="overflow:visible"><path id="path880-5" d="M 0,0 5,-5 -12.5,0 5,5 Z" style="fill:#000;fill-opacity:1;fill-rule:evenodd;stroke:#000;stroke-width:1.00000003pt;stroke-opacity:1" transform="matrix(-0.8,0,0,-0.8,-10,0)"/></marker><marker id="Arrow1Lstart-9" orient="auto" refX="0" refY="0" style="overflow:visible"><path id="path877-1" d="M 0,0 5,-5 -12.5,0 5,5 Z" style="fill:#000;fill-opacity:1;fill-rule:evenodd;stroke:#000;stroke-width:1.00000003pt;stroke-opacity:1" transform="matrix(0.8,0,0,0.8,10,0)"/></marker><marker id="Arrow1Lend-2" orient="auto" refX="0" refY="0" style="overflow:visible"><path id="path880-7" d="M 0,0 5,-5 -12.5,0 5,5 Z" style="fill:#000;fill-opacity:1;fill-rule:evenodd;stroke:#000;stroke-width:1.00000003pt;stroke-opacity:1" transform="matrix(-0.8,0,0,-0.8,-10,0)"/></marker><marker id="Arrow1Lstart-9-9" orient="auto" refX="0" refY="0" style="overflow:visible"><path id="path877-1-3" d="M 0,0 5,-5 -12.5,0 5,5 Z" style="fill:#000;fill-opacity:1;fill-rule:evenodd;stroke:#000;stroke-width:1.00000003pt;stroke-opacity:1" transform="matrix(0.8,0,0,0.8,10,0)"/></marker><marker id="Arrow1Lend-2-6" orient="auto" refX="0" refY="0" style="overflow:visible"><path id="path880-7-0" d="M 0,0 5,-5 -12.5,0 5,5 Z" style="fill:#000;fill-opacity:1;fill-rule:evenodd;stroke:#000;stroke-width:1.00000003pt;stroke-opacity:1" transform="matrix(-0.8,0,0,-0.8,-10,0)"/></marker><marker id="Arrow1Lstart-1" orient="auto" refX="0" refY="0" style="overflow:visible"><path id="path877-2" d="M 0,0 5,-5 -12.5,0 5,5 Z" style="fill:#000;fill-opacity:1;fill-rule:evenodd;stroke:#000;stroke-width:1.00000003pt;stroke-opacity:1" transform="matrix(0.8,0,0,0.8,10,0)"/></marker><marker id="Arrow1Lend-9" orient="auto" refX="0" refY="0" style="overflow:visible"><path id="path880-3" d="M 0,0 5,-5 -12.5,0 5,5 Z" style="fill:#000;fill-opacity:1;fill-rule:evenodd;stroke:#000;stroke-width:1.00000003pt;stroke-opacity:1" transform="matrix(-0.8,0,0,-0.8,-10,0)"/></marker><marker id="Arrow1Lstart-94" orient="auto" refX="0" refY="0" style="overflow:visible"><path id="path877-7" d="M 0,0 5,-5 -12.5,0 5,5 Z" style="fill:#000;fill-opacity:1;fill-rule:evenodd;stroke:#000;stroke-width:1.00000003pt;stroke-opacity:1" transform="matrix(0.8,0,0,0.8,10,0)"/></marker><marker id="Arrow1Lend-8" orient="auto" refX="0" refY="0" style="overflow:visible"><path id="path880-4" d="M 0,0 5,-5 -12.5,0 5,5 Z" style="fill:#000;fill-opacity:1;fill-rule:evenodd;stroke:#000;stroke-width:1.00000003pt;stroke-opacity:1" transform="matrix(-0.8,0,0,-0.8,-10,0)"/></marker></defs><metadata id="metadata5"/><g id="layer1" transform="translate(0,-187)"><g id="g7357" transform="translate(65,-15)" style="opacity:.5"><rect id="rect828-9" width="70" height="70" x="170" y="202" style="color:#000;clip-rule:nonzero;display:inline;overflow:visible;visibility:visible;opacity:.98000004;isolation:auto;mix-blend-mode:normal;color-interpolation:sRGB;color-interpolation-filters:linearRGB;solid-color:#000;solid-opacity:1;fill:gray;fill-opacity:.25098039;fill-rule:nonzero;stroke:#999;stroke-width:.30550504;stroke-linecap:butt;stroke-linejoin:miter;stroke-miterlimit:4;stroke-dasharray:none;stroke-dashoffset:0;stroke-opacity:1;marker:none;color-rendering:auto;image-rendering:auto;shape-rendering:auto;text-rendering:auto;enable-background:accumulate"/><path d="m 220,252 h 10 v 10 h -10 z m -50,0 h 10 v 10 h -10 z m 5,-10 h 50 v 10 h -50 z m 4.99998,-10 h 10 v 10 h -10 z M 210,232 h 10 v 10 h -10 z m -5,-10 h 10 v 10 h -10 z m -20,0 h 10 v 10 h -10 z m 5,-10.00002 h 20 v 10 H 190 Z M 195,202 h 10 v 10 h -10 z" style="color:#000;clip-rule:nonzero;display:inline;overflow:visible;visibility:visible;opacity:.98000004;isolation:auto;mix-blend-mode:normal;color-interpolation:sRGB;color-interpolation-filters:linearRGB;solid-color:#000;solid-opacity:1;fill:gray;fill-opacity:1;fill-rule:nonzero;stroke:none;stroke-width:.32659864;stroke-linecap:butt;stroke-linejoin:miter;stroke-miterlimit:4;stroke-dasharray:none;stroke-dashoffset:0;stroke-opacity:1;marker:none;color-rendering:auto;image-rendering:auto;shape-rendering:auto;text-rendering:auto;enable-background:accumulate" id="rect854-2"/></g><g id="g8201" transform="translate(0,190)"><rect style="color:#000;clip-rule:nonzero;display:inline;overflow:visible;visibility:visible;opacity:1;isolation:auto;mix-blend-mode:normal;color-interpolation:sRGB;color-interpolation-filters:linearRGB;solid-color:#000;solid-opacity:1;fill:#fff;fill-opacity:1;fill-rule:nonzero;stroke:none;stroke-width:0;stroke-linecap:butt;stroke-linejoin:miter;stroke-miterlimit:4;stroke-dasharray:.26499998,1.05999994;stroke-dashoffset:0;stroke-opacity:1;marker:none;color-rendering:auto;image-rendering:auto;shape-rendering:auto;text-rendering:auto;enable-background:accumulate" id="rect1594" width="120" height="110" x="0" y="-3"/><g id="g7361" transform="translate(-75,-120)"><rect style="color:#000;clip-rule:nonzero;display:inline;overflow:visible;visibility:visible;opacity:.98000004;isolation:auto;mix-blend-mode:normal;color-interpolation:sRGB;color-interpolation-filters:linearRGB;solid-color:#000;solid-opacity:1;fill:#00f;fill-opacity:.25098039;fill-rule:nonzero;stroke:#00f;stroke-width:.30550504;stroke-linecap:butt;stroke-linejoin:miter;stroke-miterlimit:4;stroke-dasharray:none;stroke-dashoffset:0;stroke-opacity:1;marker:none;color-rendering:auto;image-rendering:auto;shape-rendering:auto;text-rendering:auto;enable-background:accumulate" id="rect828" width="70" height="70" x="100" y="137"/><path id="rect854" style="color:#000;clip-rule:nonzero;display:inline;overflow:visible;visibility:visible;opacity:.98000004;isolation:auto;mix-blend-mode:normal;color-interpolation:sRGB;color-interpolation-filters:linearRGB;solid-color:#000;solid-opacity:1;fill:#00f;fill-opacity:1;fill-rule:nonzero;stroke:none;stroke-width:.32659864;stroke-linecap:butt;stroke-linejoin:miter;stroke-miterlimit:4;stroke-dasharray:none;stroke-dashoffset:0;stroke-opacity:1;marker:none;color-rendering:auto;image-rendering:auto;shape-rendering:auto;text-rendering:auto;enable-background:accumulate" d="m 150,187 h 10 v 10 h -10 z m -50,0 h 10 v 10 h -10 z m 5,-10 h 50 v 10 h -50 z m 4.99999,-10 h 10 v 10 h -10 z M 140,167 h 10 v 10 h -10 z m -5,-10 h 10 v 10 h -10 z m -20,0 h 10 v 10 h -10 z m 5,-10.00002 h 20 v 10 H 120 Z M 125,137 h 10 v 10 h -10 z"/></g><path id="path875" d="M 19.999999,17 V 87" style="fill:none;fill-rule:evenodd;stroke:#000;stroke-width:.26499999;stroke-linecap:butt;stroke-linejoin:miter;stroke-miterlimit:4;stroke-dasharray:none;stroke-opacity:1;marker-start:url(#Arrow1Lstart);marker-end:url(#Arrow1Lend)"/><text id="text1193" x="-52.436" y="17.497" transform="rotate(-90)" style="font-style:normal;font-weight:400;font-size:3.96875px;line-height:125%;font-family:sans-serif;text-align:center;letter-spacing:0;word-spacing:0;text-anchor:middle;fill:#000;fill-opacity:1;stroke:none;stroke-width:.26458332px;stroke-linecap:butt;stroke-linejoin:miter;stroke-opacity:1" xml:space="preserve"><tspan style="text-align:center;text-anchor:middle;fill:#000;fill-opacity:1;stroke-width:.26458332px" id="tspan1191" x="-52.436" y="17.497">Texture Height</tspan></text><path id="path875-3" d="M 95,97 H 25" style="fill:none;fill-rule:evenodd;stroke:#000;stroke-width:.26499999;stroke-linecap:butt;stroke-linejoin:miter;stroke-miterlimit:4;stroke-dasharray:none;stroke-opacity:1;marker-start:url(#Arrow1Lstart-3);marker-end:url(#Arrow1Lend-7)"/><text id="text1193-5" x="60.176" y="101.695" style="font-style:normal;font-weight:400;font-size:3.96875px;line-height:125%;font-family:sans-serif;text-align:center;letter-spacing:0;word-spacing:0;text-anchor:middle;fill:#000;fill-opacity:1;stroke:none;stroke-width:.26458332px;stroke-linecap:butt;stroke-linejoin:miter;stroke-opacity:1" xml:space="preserve"><tspan style="text-align:center;text-anchor:middle;fill:#000;fill-opacity:1;stroke-width:.26458332px" id="tspan1191-6" x="60.176" y="101.695">Texture Width</tspan></text><rect id="rect828-2" width="70" height="85" x="25" y="7" style="color:#000;clip-rule:nonzero;display:inline;overflow:visible;visibility:visible;opacity:.98000004;isolation:auto;mix-blend-mode:normal;color-interpolation:sRGB;color-interpolation-filters:linearRGB;solid-color:#000;solid-opacity:1;fill:none;fill-opacity:1;fill-rule:nonzero;stroke:#f0f;stroke-width:.33665016;stroke-linecap:butt;stroke-linejoin:miter;stroke-miterlimit:4;stroke-dasharray:none;stroke-dashoffset:0;stroke-opacity:1;marker:none;color-rendering:auto;image-rendering:auto;shape-rendering:auto;text-rendering:auto;enable-background:accumulate"/><path id="path875-0" d="M 20,7 V 17" style="fill:none;fill-rule:evenodd;stroke:#000;stroke-width:.26499999;stroke-linecap:butt;stroke-linejoin:miter;stroke-miterlimit:4;stroke-dasharray:none;stroke-opacity:1;marker-start:url(#marker7071);marker-end:url(#marker7159)"/><path id="path875-0-6" d="m 20,87 v 5" style="fill:none;fill-rule:evenodd;stroke:#000;stroke-width:.26499999;stroke-linecap:butt;stroke-linejoin:miter;stroke-miterlimit:4;stroke-dasharray:none;stroke-opacity:1;marker-start:url(#Arrow1Mstart);marker-end:url(#Arrow1Mend)"/><text id="text1193-2" x="17.348" y="10.614" style="font-style:normal;font-weight:400;font-size:3.96875px;line-height:125%;font-family:sans-serif;text-align:end;letter-spacing:0;word-spacing:0;text-anchor:end;fill:#000;fill-opacity:1;stroke:none;stroke-width:.26458332px;stroke-linecap:butt;stroke-linejoin:miter;stroke-opacity:1" xml:space="preserve"><tspan style="text-align:end;text-anchor:end;fill:#000;fill-opacity:1;stroke-width:.26458332px" id="tspan1191-61" x="17.348" y="10.614">Margin</tspan><tspan id="tspan8103" style="text-align:end;text-anchor:end;fill:#000;fill-opacity:1;stroke-width:.26458332px" x="17.348" y="15.575">Top</tspan></text><text id="text1193-2-8" x="17.24" y="88.499" style="font-style:normal;font-weight:400;font-size:3.96875px;line-height:125%;font-family:sans-serif;text-align:end;letter-spacing:0;word-spacing:0;text-anchor:end;fill:#000;fill-opacity:1;stroke:none;stroke-width:.26458332px;stroke-linecap:butt;stroke-linejoin:miter;stroke-opacity:1" xml:space="preserve"><tspan style="text-align:end;text-anchor:end;fill:#000;fill-opacity:1;stroke-width:.26458332px" id="tspan1191-61-7" x="18.504" y="88.499">Margin </tspan><tspan id="tspan8105" style="text-align:end;text-anchor:end;fill:#000;fill-opacity:1;stroke-width:.26458332px" x="17.24" y="93.46">Bottom</tspan></text><path id="path875-1" d="M 100,7 V 92" style="fill:none;fill-rule:evenodd;stroke:#000;stroke-width:.26499999;stroke-linecap:butt;stroke-linejoin:miter;stroke-miterlimit:4;stroke-dasharray:none;stroke-opacity:1;marker-start:url(#Arrow1Lstart-1);marker-end:url(#Arrow1Lend-9)"/><text id="text1193-0" x="-49.646" y="104.36" transform="rotate(-90)" style="font-style:normal;font-weight:400;font-size:3.96875px;line-height:125%;font-family:sans-serif;text-align:center;letter-spacing:0;word-spacing:0;text-anchor:middle;fill:#000;fill-opacity:1;stroke:none;stroke-width:.26458332px;stroke-linecap:butt;stroke-linejoin:miter;stroke-opacity:1" xml:space="preserve"><tspan style="text-align:center;text-anchor:middle;fill:#000;fill-opacity:1;stroke-width:.26458332px" id="tspan1191-3" x="-49.646" y="104.36">Line Height</tspan></text></g></g></svg>