<svg xmlns="http://www.w3.org/2000/svg" xmlns:svg="http://www.w3.org/2000/svg" id="svg2985" width="32" height="32" version="1.1"><metadata id="metadata2990"/><g id="layer1" style="display:inline"><rect style="color:#000;fill:#000040;fill-opacity:1;fill-rule:nonzero;stroke:red;stroke-width:0;stroke-linecap:round;stroke-linejoin:round;stroke-miterlimit:4;stroke-opacity:1;stroke-dasharray:none;stroke-dashoffset:0;marker:none;visibility:visible;display:inline;overflow:visible;enable-background:accumulate" id="rect2995" width="28" height="24" x="2" y="4"/><path style="display:inline;fill:none;stroke:#fff;stroke-width:1px;stroke-linecap:butt;stroke-linejoin:miter;stroke-opacity:1" id="path3018" d="m 3.5,8.5 0,15 c 1.5,0 3,1.5 3,3 l 19,0 c 0,-1.5 1.5,-3 3,-3 l 0,-15 c -1.5,0 -3,-1.5 -3,-3 l -19,0 c 0,1.5 -1.5,3 -3,3 z"/><path style="display:inline;color:#000;fill:#fff;fill-opacity:1;fill-rule:nonzero;stroke:red;stroke-width:0;stroke-linecap:round;stroke-linejoin:round;stroke-miterlimit:4;stroke-opacity:1;stroke-dasharray:none;stroke-dashoffset:0;marker:none;visibility:visible;overflow:visible;enable-background:accumulate" id="path3010" d="M 3,6 A 1,1 0 1 1 1,6 1,1 0 1 1 3,6 z" transform="translate(2,0)"/><path style="display:inline;color:#000;fill:#fff;fill-opacity:1;fill-rule:nonzero;stroke:red;stroke-width:0;stroke-linecap:round;stroke-linejoin:round;stroke-miterlimit:4;stroke-opacity:1;stroke-dasharray:none;stroke-dashoffset:0;marker:none;visibility:visible;overflow:visible;enable-background:accumulate" id="path3012" d="m 31,6 a 1,1 0 1 1 -2,0 1,1 0 1 1 2,0 z" transform="translate(-2,0)"/><path style="display:inline;color:#000;fill:#fff;fill-opacity:1;fill-rule:nonzero;stroke:red;stroke-width:0;stroke-linecap:round;stroke-linejoin:round;stroke-miterlimit:4;stroke-opacity:1;stroke-dasharray:none;stroke-dashoffset:0;marker:none;visibility:visible;overflow:visible;enable-background:accumulate" id="path3014" d="m 3,26 a 1,1 0 1 1 -2,0 1,1 0 1 1 2,0 z" transform="translate(2,0)"/><path style="display:inline;color:#000;fill:#fff;fill-opacity:1;fill-rule:nonzero;stroke:red;stroke-width:0;stroke-linecap:round;stroke-linejoin:round;stroke-miterlimit:4;stroke-opacity:1;stroke-dasharray:none;stroke-dashoffset:0;marker:none;visibility:visible;overflow:visible;enable-background:accumulate" id="path3016" d="m 31,26 a 1,1 0 1 1 -2,0 1,1 0 1 1 2,0 z" transform="translate(-2,0)"/></g><g id="layer2" style="display:inline"><path style="color:#000;fill:#000040;fill-opacity:1;fill-rule:nonzero;stroke:red;stroke-width:0;stroke-linecap:round;stroke-linejoin:round;stroke-miterlimit:4;stroke-opacity:1;stroke-dasharray:none;stroke-dashoffset:0;marker:none;visibility:visible;display:inline;overflow:visible;enable-background:accumulate" id="rect2995-0" d="M 0,0 0,32 32,32 32,0 0,0 z M 2,4 30,4 30,28 2,28 2,4 z"/></g></svg>